<svg width="35" height="36" viewBox="0 0 35 36" fill="none" xmlns="http://www.w3.org/2000/svg">
<path d="M17.5 6.63V1" stroke="black" stroke-width="1.5" stroke-linecap="round"/>
<path d="M15 3H20" stroke="black" stroke-width="1.5" stroke-linecap="round"/>
<path fill-rule="evenodd" clip-rule="evenodd" d="M17.5 20C17.5 20 22 12.5 20.5 9.5C20.5 9.5 19.5 7 17.5 7C15.5 7 14.5 9.5 14.5 9.5C13 12.5 17.5 20 17.5 20Z" fill="white" stroke="black" stroke-width="1.5"/>
<path fill-rule="evenodd" clip-rule="evenodd" d="M6.5 32C12 35.5 22 35.5 27.5 32V25C27.5 25 36.5 20.5 33.5 14.5C29.5 7.99999 20 11 17.5 18.5C14 11 4.5 7.99999 1.5 14.5C-1.5 20.5 6.5 24.5 6.5 24.5V32Z" fill="white"/>
<path d="M17.5 18.5C20 11 29.5 7.99999 33.5 14.5C36.5 20.5 27.5 25 27.5 25V32C22 35.5 12 35.5 6.5 32V24.5C6.5 24.5 -1.5 20.5 1.5 14.5C4.5 7.99999 14 11 17.5 18.5ZM17.5 18.5V22" stroke="black" stroke-width="1.5" stroke-linecap="round" stroke-linejoin="round"/>
<path d="M6.5 25C12 22 22 22 27.5 25" stroke="black" stroke-width="1.5" stroke-linecap="round" stroke-linejoin="round"/>
<path d="M6.5 28.5C12 25.5 22 25.5 27.5 28.5" stroke="black" stroke-width="1.5" stroke-linecap="round" stroke-linejoin="round"/>
<path d="M6.5 32C12 29 22 29 27.5 32" stroke="black" stroke-width="1.5" stroke-linecap="round" stroke-linejoin="round"/>
</svg>
